<svg xmlns="http://www.w3.org/2000/svg" style="display:none">

    <symbol id="flag-en" viewBox="0 0 60 40">
        <clipPath id="flag-en-a"><path d="M0 0h60v40H0z"/></clipPath>
        <clipPath id="flag-en-b"><path d="M30 20h30v20zv20H0zH0V0zV0h30z"/></clipPath>
        <g clip-path="url(#flag-en-a)">
            <path d="M0 0h60v40H0z" fill="#012169"/>
            <path d="M0 0l60 40M60 0L0 40" stroke="#fff" stroke-width="8"/>
            <path d="M0 0l60 40M60 0L0 40" clip-path="url(#flag-en-b)" stroke="#C8102E" stroke-width="5"/>
            <path d="M30 0v40M0 20h60" stroke="#fff" stroke-width="13"/>
            <path d="M30 0v40M0 20h60" stroke="#C8102E" stroke-width="8"/>
        </g>
    </symbol>

    <symbol id="flag-ru" viewBox="0 0 60 40">
        <rect width="60" height="14" fill="#fff"/>
        <rect y="13" width="60" height="14" fill="#0039A6"/>
        <rect y="26" width="60" height="14" fill="#D52B1E"/>
    </symbol>

    <symbol id="flag-es" viewBox="0 0 60 40">
        <rect width="60" height="40" fill="#AA151B"/>
        <rect y="10" width="60" height="20" fill="#F1BF00"/>
    </symbol>

    <symbol id="flag-pt" viewBox="0 0 60 40">
        <rect width="60" height="40" fill="#009C3B"/>
        <polygon points="30,4 56,20 30,36 4,20" fill="#FFDF00"/>
        <circle cx="30" cy="20" r="9" fill="#002776"/>
        <path d="M21.5 17a9 9 0 0 1 17 0" stroke="#fff" stroke-width="1.5" fill="none"/>
    </symbol>

    <symbol id="flag-de" viewBox="0 0 60 40">
        <rect width="60" height="14" fill="#000"/>
        <rect y="13" width="60" height="14" fill="#DD0000"/>
        <rect y="26" width="60" height="14" fill="#FFCE00"/>
    </symbol>

    <symbol id="flag-fr" viewBox="0 0 60 40">
        <rect width="20" height="40" fill="#002395"/>
        <rect x="20" width="20" height="40" fill="#fff"/>
        <rect x="40" width="20" height="40" fill="#ED2939"/>
    </symbol>

    <symbol id="flag-it" viewBox="0 0 60 40">
        <rect width="20" height="40" fill="#009246"/>
        <rect x="20" width="20" height="40" fill="#fff"/>
        <rect x="40" width="20" height="40" fill="#CE2B37"/>
    </symbol>

    <symbol id="flag-tr" viewBox="0 0 60 40">
        <rect width="60" height="40" fill="#E30A17"/>
        <circle cx="23" cy="20" r="10" fill="#fff"/>
        <circle cx="27" cy="20" r="8" fill="#E30A17"/>
        <polygon points="37,20 40.5,14.5 46,17 42.5,11.5 47,9 41,9.5 40.5,3.5 38,9 32,8 36,12.5" fill="#fff"/>
    </symbol>

    <!-- Saudi Arabia -->
    <symbol id="flag-ar" viewBox="0 0 60 40">
        <rect width="60" height="40" fill="#006C35"/>
        <rect x="10" y="29" width="40" height="2.5" fill="#fff"/>
        <rect x="42" y="23" width="2.5" height="8.5" fill="#fff"/>
        <path d="M14 10 Q14 8 16 8 L30 8 Q32 8 32 10 L32 18 Q32 20 30 20 L18 20 L18 24 L20 24 L20 22 L22 22 L22 24 L32 24 L32 22 Q34 22 34 24 Q34 26 32 26 L18 26 Q16 26 16 24 L16 20 Q14 20 14 18 Z" fill="#fff"/>
        <path d="M20 10 L20 18 M24 8 L24 20 M28 8 L28 20" stroke="#006C35" stroke-width="1"/>
    </symbol>

    <!-- Iran -->
    <symbol id="flag-fa" viewBox="0 0 60 40">
        <rect width="60" height="40" fill="#239F40"/>
        <rect y="13.5" width="60" height="13" fill="#fff"/>
        <rect y="27" width="60" height="13" fill="#DA0000"/>
        <path d="M0 13.5 Q5 16 10 13.5 Q15 11 20 13.5 Q25 16 30 13.5 Q35 11 40 13.5 Q45 16 50 13.5 Q55 11 60 13.5" fill="none" stroke="#DA0000" stroke-width="1"/>
        <path d="M0 26.5 Q5 24 10 26.5 Q15 29 20 26.5 Q25 24 30 26.5 Q35 29 40 26.5 Q45 24 50 26.5 Q55 29 60 26.5" fill="none" stroke="#239F40" stroke-width="1"/>
        <circle cx="30" cy="20" r="4" fill="none" stroke="#DA0000" stroke-width="1.2"/>
        <path d="M28 20 Q30 17 32 20 Q30 23 28 20 Z" fill="#DA0000"/>
    </symbol>

    <!-- Israel -->
    <symbol id="flag-he" viewBox="0 0 60 40">
        <rect width="60" height="40" fill="#fff"/>
        <rect y="5" width="60" height="6" fill="#0038B8"/>
        <rect y="29" width="60" height="6" fill="#0038B8"/>
        <polygon points="30,13 35.2,22 24.8,22" fill="none" stroke="#0038B8" stroke-width="1.8"/>
        <polygon points="30,27 35.2,18 24.8,18" fill="none" stroke="#0038B8" stroke-width="1.8"/>
    </symbol>

    <!-- India -->
    <symbol id="flag-hi" viewBox="0 0 60 40">
        <rect width="60" height="40" fill="#138808"/>
        <rect width="60" height="27" fill="#fff"/>
        <rect width="60" height="13.5" fill="#FF9933"/>
        <circle cx="30" cy="20" r="5" fill="none" stroke="#000080" stroke-width="1.2"/>
        <circle cx="30" cy="20" r="0.8" fill="#000080"/>
        <g stroke="#000080" stroke-width="0.5">
            <line x1="30" y1="15" x2="30" y2="25"/>
            <line x1="25" y1="20" x2="35" y2="20"/>
            <line x1="26.46" y1="16.46" x2="33.54" y2="23.54"/>
            <line x1="33.54" y1="16.46" x2="26.46" y2="23.54"/>
            <line x1="25.18" y1="17.68" x2="34.82" y2="22.32"/>
            <line x1="34.82" y1="17.68" x2="25.18" y2="22.32"/>
            <line x1="25.68" y1="18.35" x2="34.32" y2="21.65"/>
            <line x1="34.32" y1="18.35" x2="25.68" y2="21.65"/>
            <line x1="26.95" y1="15.65" x2="33.05" y2="24.35"/>
            <line x1="33.05" y1="15.65" x2="26.95" y2="24.35"/>
            <line x1="28.35" y1="15.18" x2="31.65" y2="24.82"/>
            <line x1="31.65" y1="15.18" x2="28.35" y2="24.82"/>
        </g>
    </symbol>

    <symbol id="icon-users" viewBox="0 -1 24 24">
        <path fill-rule="evenodd" clip-rule="evenodd" d="M7.99978 -0.000028C11.3134 -0.000028 13.9996 2.68619 13.9996 5.9998C13.9996 9.3134 11.3134 11.9996 7.99978 11.9996C4.68616 11.9996 1.99994 9.3134 1.99994 5.9998C1.99994 2.68619 4.68616 -0.000028 7.99978 -0.000028zM0.999972 22.0984C0.447703 22.0984 0 21.6507 0 21.0984V18.9994C0 16.2381 2.23851 13.9996 4.99986 13.9996H11.0004C13.7617 13.9996 16.0003 16.2381 16.0003 18.9994V21.0984C16.0003 21.6507 15.5526 22.0984 15.0003 22.0984C14.448 22.0984 1.55224 22.0984 0.999972 22.0984zM13.7484 11.563C15.142 10.1233 15.9996 8.16172 15.9996 5.9998C15.9996 3.83789 15.142 1.87627 13.7484 0.43658C14.4436 0.15502 15.2034 -0.000028 15.9996 -0.000028C19.3132 -0.000028 21.9994 2.68619 21.9994 5.9998C21.9994 9.3134 19.3132 11.9996 15.9996 11.9996C15.2034 11.9996 14.4436 11.8446 13.7484 11.563zM15.8992 13.9996H19.0002C21.7615 13.9996 24 16.2381 24 18.9994V21.0984C24 21.6507 23.5523 22.0984 23.0001 22.0984H17.8295C17.94 21.7856 18.0002 21.449 18.0002 21.0984V18.9994C18.0002 17.0408 17.1958 15.2701 15.8992 13.9996z" fill="currentColor"/>
    </symbol>

    <symbol id="icon-gear" viewBox="0 0 24 24">
        <path d="M12 4a1 1 0 0 0-1 1c0 1.692-2.046 2.54-3.243 1.343a1 1 0 1 0-1.414 1.414C7.54 8.954 6.693 11 5 11a1 1 0 1 0 0 2c1.692 0 2.54 2.046 1.343 3.243a1 1 0 0 0 1.414 1.414C8.954 16.46 11 17.307 11 19a1 1 0 1 0 2 0c0-1.692 2.046-2.54 3.243-1.343a1 1 0 1 0 1.414-1.414C16.46 15.046 17.307 13 19 13a1 1 0 1 0 0-2c-1.692 0-2.54-2.046-1.343-3.243a1 1 0 0 0-1.414-1.414C15.046 7.54 13 6.693 13 5a1 1 0 0 0-1-1zm-2.992.777a3 3 0 0 1 5.984 0 3 3 0 0 1 4.23 4.231 3 3 0 0 1 .001 5.984 3 3 0 0 1-4.231 4.23 3 3 0 0 1-5.984 0 3 3 0 0 1-4.231-4.23 3 3 0 0 1 0-5.984 3 3 0 0 1 4.231-4.231z" fill="currentColor"/>
        <path d="M12 10a2 2 0 1 0 0 4 2 2 0 0 0 0-4zm-2.828-.828a4 4 0 1 1 5.656 5.656 4 4 0 0 1-5.656-5.656z" fill="currentColor"/>
    </symbol>

    <symbol id="icon-folder" viewBox="0 -1 22 22">
        <path fill-rule="evenodd" clip-rule="evenodd" d="M8.39445 0C8.7288 0 9.041 0.1671 9.2265 0.4453L10.6328 2.5547C10.8182 2.8329 11.1305 3 11.4648 3H20C21.1046 3 22 3.89543 22 5V18C22 19.1046 21.1046 20 20 20H2C0.89543 20 0 19.1046 0 18L0 2C0 0.89543 0.89543 0 2 0L8.39445 0z" fill="currentColor"/>
    </symbol>

    <symbol id="icon-close" viewBox="0 0 24 24">
        <path d="M8 8L16 16" stroke="currentColor" stroke-width="2" stroke-linecap="round" stroke-linejoin="round"/>
        <path d="M16 8L8 16" stroke="currentColor" stroke-width="2" stroke-linecap="round" stroke-linejoin="round"/>
    </symbol>

    <symbol id="icon-gun" viewBox="0 0 32 32">
        <path d="M23.063 13.672h8.108l-0.031-3.229h-0.618v-3.109c-1.708 0.39-3.275 1.14-4.234 3.109h-7.574c0-0 0-0 0-0l-12.745 0.001c-0.281 1.025-0.489 1.799-0.675 2.417-1.269-0.778-4.424-2.899-4.424-2.899 0.444 2.322 1.494 4.187 3.015 5.696-0.295 0.355-0.661 0.752-1.135 1.262-2.603 4.931-2.137 7.536-1.959 10.244 1.713 2.171 5.137 2.074 7.196 1.355-0.065-3.009 0.401-5.88 2.459-8.816 2.52 2.335 6.37 1.223 8.225-0.814 0.832-0.913 0.949-1.991 0.815-3.202h3.578v-2.015z" fill="currentColor"/>
    </symbol>

    <symbol id="icon-dice" viewBox="0 0 423.757 423.757">
        <path d="M189.294,385.219l112.522,38.538l98.514-98.509l-113.3-37.765L189.294,385.219z M239.962,379.203c-5.96,5.96-15.672,8.54-21.699,5.76c-6.021-2.78-6.077-9.861-0.113-15.821c5.96-5.96,15.672-8.54,21.699-5.76C245.875,366.162,245.921,373.243,239.962,379.203z M276.298,391.931c-5.96,5.96-15.672,8.54-21.699,5.76c-6.021-2.78-6.077-9.861-0.113-15.821c5.965-5.96,15.672-8.54,21.699-5.76C282.207,378.89,282.258,385.971,276.298,391.931z M349.56,334.94c5.96-5.96,15.672-8.54,21.699-5.76c6.021,2.78,6.077,9.861,0.118,15.821s-15.672,8.54-21.699,5.76S343.601,340.9,349.56,334.94z M313.331,323.031c5.96-5.96,15.672-8.54,21.699-5.76c6.021,2.78,6.077,9.861,0.113,15.821c-5.96,5.96-15.672,8.54-21.699,5.76C307.423,336.072,307.372,328.991,313.331,323.031z M312.415,388.019c6.021,2.78,6.077,9.861,0.113,15.821c-5.96,5.96-15.672,8.54-21.699,5.76s-6.077-9.861-0.118-15.821C296.676,387.825,306.388,385.244,312.415,388.019z M298.693,304.538c6.021,2.78,6.077,9.861,0.113,15.821c-5.96,5.96-15.672,8.54-21.699,5.76c-6.021-2.78-6.077-9.861-0.113-15.821C282.954,304.338,292.667,301.763,298.693,304.538z" fill="currentColor"/>
        <path d="M402.158,311.634l-37.202-111.611l-111.611-37.207l37.202,111.606L402.158,311.634z M319.281,224.118c4.168-4.168,12.544-2.555,18.708,3.61s7.782,14.541,3.61,18.708c-4.168,4.168-12.544,2.555-18.708-3.61C316.726,236.662,315.108,228.285,319.281,224.118z" fill="currentColor"/>
        <path d="M135.171,0L29.939,52.613l105.231,52.613l105.226-52.613L135.171,0z M135.171,63.288c-8.714,0-15.785-4.782-15.785-10.675c0-5.898,7.066-10.675,15.785-10.675s15.785,4.782,15.785,10.675C150.95,58.511,143.885,63.288,135.171,63.288z" fill="currentColor"/>
        <path d="M162.22,201.728c5.028-1.853,9.231,1.08,10.685,6.702l63.022-63.022l12.805,4.27V63.529l-106.819,53.412v122.481l10.798-10.798c-1.101-1.951-1.761-4.48-1.761-7.475C150.95,212.716,155.999,204.022,162.22,201.728z M230.956,86.866c6.226-2.294,11.269,2.678,11.269,11.105c0,8.427-5.043,17.121-11.269,19.415c-6.226,2.294-11.269-2.678-11.269-11.105C219.686,97.853,224.73,89.16,230.956,86.866z M198.843,142.003c6.226-2.294,11.269,2.678,11.269,11.105c0,8.427-5.043,17.121-11.269,19.415c-6.226,2.294-11.269-2.678-11.269-11.105C187.574,152.991,192.622,144.297,198.843,142.003z M150.95,140.175c0-8.427,5.043-17.121,11.269-19.415c6.226-2.294,11.269,2.678,11.269,11.105c0,8.428-5.043,17.121-11.269,19.415C155.994,153.574,150.95,148.603,150.95,140.175z" fill="currentColor"/>
        <path d="M21.599,202.839l105.313,51.579l1.51-1.51V116.941L21.599,63.529V202.839z M107.855,201.728c6.226,2.294,11.269,10.988,11.269,19.415s-5.043,13.399-11.269,11.105c-6.226-2.294-11.269-10.988-11.269-19.415C96.586,204.406,101.635,199.434,107.855,201.728z M75.011,140.298c6.226,2.294,11.269,10.987,11.269,19.415c0,8.427-5.043,13.399-11.269,11.105c-6.226-2.294-11.269-10.988-11.269-19.415C63.741,142.976,68.79,138.004,75.011,140.298z M41.208,86.866c6.226,2.294,11.269,10.987,11.269,19.415c0,8.427-5.043,13.399-11.269,11.105c-6.226-2.294-11.269-10.987-11.269-19.415C29.939,89.544,34.982,84.572,41.208,86.866z" fill="currentColor"/>
        <path d="M239.726,164.639l-98.514,98.504l38.543,112.533l97.736-97.746L239.726,164.639z M197.655,338.565c-5.96,5.96-13.046,5.909-15.821-0.118c-2.775-6.026-0.2-15.739,5.76-21.699c5.96-5.96,13.046-5.909,15.821,0.113C206.19,322.883,203.615,332.605,197.655,338.565z M230.525,221.773c-5.96,5.96-13.046,5.908-15.821-0.113c-2.78-6.021-0.2-15.739,5.76-21.699c5.96-5.96,13.046-5.908,15.821,0.113C239.066,206.1,236.485,215.813,230.525,221.773z" fill="currentColor"/>
    </symbol>

    <symbol id="icon-reset" viewBox="0 0 16 16">
        <path d="m 2 0 c -1.109375 0 -2 0.890625 -2 2 v 6 c 0 1.109375 0.890625 2 2 2 v -8 h 8 c 0 -1.109375 -0.890625 -2 -2 -2 z m 0 0" fill="currentColor"/>
        <path d="m 8 6 c -1.109375 0 -2 0.890625 -2 2 v 6 c 0 1.109375 0.890625 2 2 2 h 6 c 1.109375 0 2 -0.890625 2 -2 v -6 c 0 -1.109375 -0.890625 -2 -2 -2 z m 0.003906 2 h 1 h 0.03125 c 0.253906 0.011719 0.507813 0.128906 0.6875 0.3125 l 1.28125 1.28125 l 1.308594 -1.28125 c 0.265625 -0.230469 0.445312 -0.304688 0.6875 -0.3125 h 1 v 1 c 0 0.285156 -0.035156 0.550781 -0.25 0.75 l -1.28125 1.28125 l 1.25 1.25 c 0.1875 0.1875 0.28125 0.453125 0.28125 0.71875 v 1 h -1 c -0.265625 0 -0.53125 -0.09375 -0.71875 -0.28125 l -1.28125 -1.28125 l -1.28125 1.28125 c -0.1875 0.1875 -0.453125 0.28125 -0.71875 0.28125 h -0.996094 v -1 c 0 -0.265625 0.09375 -0.53125 0.28125 -0.71875 l 1.277344 -1.25 l -1.277344 -1.28125 c -0.210937 -0.195312 -0.304687 -0.46875 -0.28125 -0.75 z m 0 0" fill="currentColor"/>
        <path d="m 5 3 c -1.109375 0 -2 0.890625 -2 2 v 6 c 0 1.109375 0.890625 2 2 2 v -8 h 8 c 0 -1.109375 -0.890625 -2 -2 -2 z m 0 0" fill="currentColor"/>
    </symbol>

    <symbol id="icon-like" viewBox="0 0 48 48">
        <path d="M28.227 1.989c-1.648-.49-2.956.716-3.383 1.88c-.245.667-.468 1.285-.678 1.865c-.834 2.306-1.449 4.005-2.289 5.715c-2.65 5.399-6.033 9.624-12.357 12.526c-2.414 1.108-3.964 3.798-3.205 6.525l1.234 4.432a7.25 7.25 0 0 0 5.295 5.107l14.07 3.37a9.25 9.25 0 0 0 11.079-6.56l3.334-12.217c.911-3.34-1.603-6.632-5.065-6.632h-5.04c.714-2.44 1.262-5.43 1.24-8.15c-.014-1.689-.248-3.368-.871-4.764c-.639-1.43-1.713-2.608-3.364-3.097Z" fill="currentColor"/>
    </symbol>

    <symbol id="icon-dislike" viewBox="0 0 24 24">
        <path d="M15.056 14.183c.46 1.427.693 2.676.693 3.753c0 2.398-.939 4.247-2.5 4.247c-.8 0-1.078-.45-1.383-1.546l-.27-1.022c-.1-.358-.276-.97-.526-1.83a.247.247 0 0 0-.03-.066l-2.866-4.485a5.885 5.885 0 0 0-2.855-2.327l-1.257-.481A1.75 1.75 0 0 1 2.97 8.458l.686-3.538a2.25 2.25 0 0 1 1.673-1.758l8.25-2.021a4.75 4.75 0 0 1 5.733 3.44l1.574 6.172a2.75 2.75 0 0 1-2.665 3.43h-3.165Z" fill="currentColor"/>
    </symbol>

    <symbol id="icon-timer" viewBox="0 0 24 24" fill="none" stroke="currentColor" stroke-width="2" stroke-linecap="round" stroke-linejoin="round">
        <line x1="10" x2="14" y1="2" y2="2" />
        <line x1="12" x2="15" y1="14" y2="11" />
        <circle cx="12" cy="14" r="8" />
    </symbol>

    <symbol id="icon-eye" viewBox="0 0 512 512">
        <path d="M0,226v32c128,192,384,192,512,0v-32C384,34,128,34,0,226z M256,370c-70.7,0-128-57.3-128-128s57.3-128,128-128s128,57.3,128,128S326.7,370,256,370z M256,170c0-8.3,1.7-16.1,4.3-23.6c-1.5-0.1-2.8-0.4-4.3-0.4c-53,0-96,43-96,96s43,96,96,96c53,0,96-43,96-96c0-1.5-0.4-2.8-0.4-4.3c-7.4,2.6-15.3,4.3-23.6,4.3C288.2,242,256,209.8,256,170z" fill="currentColor"/>
    </symbol>

    <symbol id="icon-eye-off" viewBox="0 0 24 24">
        <path d="M21.0006 12.0007C19.2536 15.5766 15.8779 18 12 18M12 18C8.12204 18 4.7463 15.5766 2.99977 12.0002M12 18L12 21M19.4218 14.4218L21.4999 16.5M16.2304 16.9687L17.5 19.5M4.57812 14.4218L2.5 16.5M7.76953 16.9687L6.5 19.5" stroke="currentColor" stroke-width="2" stroke-linecap="round" stroke-linejoin="round"/>
    </symbol>

</svg>
